<?xml version="1.0" encoding="UTF-8" standalone="no"?><!DOCTYPE svg PUBLIC "-//W3C//DTD SVG 1.1//EN" "http://www.w3.org/Graphics/SVG/1.1/DTD/svg11.dtd"><svg width="100%" height="100%" viewBox="0 0 150 151" version="1.1" xmlns="http://www.w3.org/2000/svg" xmlns:xlink="http://www.w3.org/1999/xlink" xml:space="preserve" xmlns:serif="http://www.serif.com/" style="fill-rule:evenodd;clip-rule:evenodd;stroke-linejoin:round;stroke-miterlimit:1.41421;"><rect id="dribbble_icon" x="0" y="0.602" width="150" height="150" style="fill:none;"/><path d="M75,118.558c-23.718,0 -43.013,-19.27 -43.013,-42.956c0,-23.686 19.295,-42.956 43.013,-42.956c23.718,0 43.013,19.27 43.013,42.956c0,23.686 -19.295,42.956 -43.013,42.956Zm36.275,-37.076c-1.257,-0.396 -11.372,-3.409 -22.885,-1.568c4.806,13.187 6.761,23.928 7.138,26.16c8.242,-5.566 14.11,-14.383 15.747,-24.592Zm-21.924,27.951c-0.546,-3.219 -2.679,-14.438 -7.837,-27.824c-0.081,0.028 -0.162,0.054 -0.243,0.082c-20.722,7.211 -28.161,21.563 -28.822,22.913c6.229,4.851 14.058,7.745 22.551,7.745c5.089,0 9.94,-1.039 14.351,-2.916Zm-41.646,-9.242c0.832,-1.423 10.915,-18.096 29.864,-24.212c0.478,-0.155 0.961,-0.3 1.447,-0.437c-0.922,-2.084 -1.926,-4.171 -2.978,-6.227c-18.348,5.484 -36.152,5.255 -37.759,5.222c-0.012,0.373 -0.019,0.746 -0.019,1.121c0,9.424 3.577,18.028 9.445,24.533Zm-8.669,-32.048c1.644,0.022 16.78,0.088 33.966,-4.47c-6.088,-10.807 -12.653,-19.893 -13.622,-21.22c-10.278,4.842 -17.961,14.305 -20.344,25.69Zm27.354,-28.156c1.016,1.358 7.689,10.433 13.709,21.48c13.064,-4.89 18.595,-12.314 19.256,-13.254c-6.488,-5.748 -15.02,-9.245 -24.355,-9.245c-2.964,0 -5.847,0.354 -8.61,1.019Zm37.049,12.469c-0.774,1.046 -6.931,8.928 -20.515,14.466c0.855,1.748 1.674,3.526 2.437,5.315c0.271,0.634 0.534,1.265 0.792,1.894c12.224,-1.536 24.371,0.925 25.583,1.181c-0.082,-8.661 -3.18,-16.613 -8.297,-22.856Z" style="fill:#c32361;"/></svg>