<?xml version="1.0" encoding="UTF-8" standalone="no"?><!DOCTYPE svg PUBLIC "-//W3C//DTD SVG 1.1//EN" "http://www.w3.org/Graphics/SVG/1.1/DTD/svg11.dtd"><svg width="100%" height="100%" viewBox="0 0 151 151" version="1.1" xmlns="http://www.w3.org/2000/svg" xmlns:xlink="http://www.w3.org/1999/xlink" xml:space="preserve" xmlns:serif="http://www.serif.com/" style="fill-rule:evenodd;clip-rule:evenodd;stroke-linejoin:round;stroke-miterlimit:1.41421;"><rect id="etsy_icon_b" x="0.444" y="0.394" width="150" height="150" style="fill:none;"/><path d="M47.43,41.726c-0.043,-0.998 0.333,-1.808 1.665,-1.808c1.331,0 14.838,0.428 23.92,0.428c18.832,0 23.349,-1.522 26.583,-1.522c1.808,0.048 2.188,1.427 2.188,2.236c0,0.808 -0.856,2.52 -0.856,4.755c0,2.235 0.523,4.613 0.523,6.563c0,1.95 -1.664,2.615 -2.567,2.615c-0.904,0 -1.473,-0.333 -1.523,-1.997c-0.095,-3.186 2.235,-7.799 -20.638,-7.799c-11.652,0 -11.937,1.332 -11.937,5.041c0,3.709 0.095,15.978 0.095,17.88c0,1.903 0.571,2.473 2.093,2.473c1.521,0 13.458,0 16.692,0c3.234,0 6.514,-1.759 6.895,-6.324c0.143,-2.426 0.808,-2.521 1.997,-2.521c1.189,0 2.283,0.951 2.093,3.233c-0.191,2.284 -0.666,4.709 -0.666,7.99c0,3.282 0.666,6.516 0.666,8.892c0,2.379 -3.139,2.949 -3.757,0.382c-0.618,-2.568 -1.522,-6.896 -8.845,-6.896c-7.324,0 -13.22,0 -14.838,0c-1.616,0 -2.425,0.904 -2.425,3.566c0,2.664 0,15.694 0,18.975c0,3.281 0.999,6.8 7.657,6.8c6.657,0 18.736,0.714 24.253,-3.614c2.377,-1.95 3.091,-4.66 3.899,-9.083c0.381,-2.044 4.803,-1.997 4.613,2.711c-0.143,2.188 -2.239,6.885 -2.239,9.899c0,2.521 0.576,5.894 -1.755,5.894c-1.971,0 -1.142,-1.004 -9.797,-1.004c-8.655,0 -38.52,0.191 -43.513,0.191c-1.855,0 -2.235,-0.524 -2.235,-1.665c0,-1.141 0.666,-1.997 2.235,-1.997c1.569,0 8.227,0.094 8.227,-8.37c0,-8.465 0,-39.423 0,-43.988c0,-4.566 -0.999,-9.13 -6.61,-9.702c-2.188,-0.19 -2.045,-1.141 -2.093,-2.234Z" style="fill-rule:nonzero;"/></svg>