<?xml version="1.0" encoding="UTF-8" standalone="no"?><!DOCTYPE svg PUBLIC "-//W3C//DTD SVG 1.1//EN" "http://www.w3.org/Graphics/SVG/1.1/DTD/svg11.dtd"><svg width="100%" height="100%" viewBox="0 0 151 151" version="1.1" xmlns="http://www.w3.org/2000/svg" xmlns:xlink="http://www.w3.org/1999/xlink" xml:space="preserve" xmlns:serif="http://www.serif.com/" style="fill-rule:evenodd;clip-rule:evenodd;stroke-linejoin:round;stroke-miterlimit:1.41421;"><rect id="etsy_icon_c_w" x="0.444" y="0.788" width="150" height="150" style="fill:none;"/><circle cx="75.444" cy="75.788" r="75"/><path d="M47.43,42.12c-0.043,-0.998 0.333,-1.807 1.665,-1.807c1.331,0 14.838,0.428 23.92,0.428c18.832,0 23.349,-1.522 26.583,-1.522c1.808,0.047 2.188,1.426 2.188,2.235c0,0.809 -0.856,2.521 -0.856,4.755c0,2.236 0.523,4.614 0.523,6.563c0,1.95 -1.664,2.615 -2.567,2.615c-0.904,0 -1.473,-0.333 -1.523,-1.997c-0.095,-3.186 2.235,-7.799 -20.638,-7.799c-11.652,0 -11.937,1.332 -11.937,5.041c0,3.709 0.095,15.979 0.095,17.881c0,1.902 0.571,2.473 2.093,2.473c1.521,0 13.458,0 16.692,0c3.234,0 6.514,-1.76 6.895,-6.325c0.143,-2.425 0.808,-2.52 1.997,-2.52c1.189,0 2.283,0.951 2.093,3.233c-0.191,2.283 -0.666,4.708 -0.666,7.989c0,3.282 0.666,6.516 0.666,8.893c0,2.378 -3.139,2.948 -3.757,0.381c-0.618,-2.568 -1.522,-6.896 -8.845,-6.896c-7.324,0 -13.22,0 -14.838,0c-1.616,0 -2.425,0.904 -2.425,3.567c0,2.663 0,15.693 0,18.975c0,3.281 0.999,6.8 7.657,6.8c6.657,0 18.736,0.713 24.253,-3.615c2.377,-1.95 3.091,-4.66 3.899,-9.082c0.381,-2.045 4.803,-1.998 4.613,2.71c-0.143,2.188 -2.239,6.885 -2.239,9.899c0,2.522 0.576,5.895 -1.755,5.895c-1.971,0 -1.142,-1.005 -9.797,-1.005c-8.655,0 -38.52,0.191 -43.513,0.191c-1.855,0 -2.235,-0.523 -2.235,-1.665c0,-1.14 0.666,-1.997 2.235,-1.997c1.569,0 8.227,0.095 8.227,-8.369c0,-8.465 0,-39.424 0,-43.989c0,-4.565 -0.999,-9.13 -6.61,-9.701c-2.188,-0.19 -2.045,-1.142 -2.093,-2.235Z" style="fill:#fff;fill-rule:nonzero;"/></svg>