<?xml version="1.0" encoding="UTF-8" standalone="no"?><!DOCTYPE svg PUBLIC "-//W3C//DTD SVG 1.1//EN" "http://www.w3.org/Graphics/SVG/1.1/DTD/svg11.dtd"><svg width="100%" height="100%" viewBox="0 0 151 151" version="1.1" xmlns="http://www.w3.org/2000/svg" xmlns:xlink="http://www.w3.org/1999/xlink" xml:space="preserve" xmlns:serif="http://www.serif.com/" style="fill-rule:evenodd;clip-rule:evenodd;stroke-linejoin:round;stroke-miterlimit:1.41421;"><rect id="instagram_icon_b" x="0.419" y="0.394" width="150" height="150" style="fill:none;"/><g><path d="M75.419,33.593c-11.353,0 -12.776,0.048 -17.235,0.251c-4.449,0.203 -7.488,0.91 -10.147,1.943c-2.748,1.069 -5.079,2.498 -7.403,4.822c-2.324,2.324 -3.753,4.655 -4.822,7.404c-1.033,2.658 -1.74,5.697 -1.943,10.146c-0.203,4.459 -0.251,5.882 -0.251,17.235c0,11.352 0.048,12.776 0.251,17.234c0.203,4.449 0.91,7.488 1.943,10.147c1.069,2.748 2.498,5.08 4.822,7.404c2.324,2.323 4.655,3.753 7.403,4.821c2.659,1.033 5.698,1.74 10.147,1.943c4.459,0.203 5.882,0.251 17.235,0.251c11.352,0 12.776,-0.048 17.234,-0.251c4.449,-0.203 7.488,-0.91 10.147,-1.943c2.749,-1.068 5.08,-2.498 7.404,-4.821c2.324,-2.324 3.753,-4.656 4.821,-7.404c1.033,-2.659 1.74,-5.698 1.943,-10.147c0.203,-4.458 0.252,-5.882 0.252,-17.234c0,-11.353 -0.049,-12.776 -0.252,-17.235c-0.203,-4.449 -0.91,-7.488 -1.943,-10.146c-1.068,-2.749 -2.497,-5.08 -4.821,-7.404c-2.324,-2.324 -4.655,-3.753 -7.404,-4.822c-2.659,-1.033 -5.698,-1.74 -10.147,-1.943c-4.458,-0.203 -5.882,-0.251 -17.234,-0.251Zm0,7.532c11.161,0 12.483,0.042 16.891,0.243c4.075,0.186 6.289,0.867 7.762,1.44c1.951,0.758 3.343,1.664 4.806,3.126c1.463,1.463 2.369,2.856 3.127,4.807c0.572,1.473 1.253,3.686 1.439,7.762c0.201,4.407 0.244,5.729 0.244,16.891c0,11.161 -0.043,12.483 -0.244,16.891c-0.186,4.075 -0.867,6.289 -1.439,7.761c-0.758,1.952 -1.664,3.344 -3.127,4.807c-1.463,1.463 -2.855,2.368 -4.806,3.127c-1.473,0.572 -3.687,1.253 -7.762,1.439c-4.407,0.201 -5.729,0.244 -16.891,0.244c-11.162,0 -12.484,-0.043 -16.891,-0.244c-4.076,-0.186 -6.289,-0.867 -7.762,-1.439c-1.951,-0.759 -3.344,-1.664 -4.807,-3.127c-1.462,-1.463 -2.368,-2.855 -3.126,-4.807c-0.573,-1.472 -1.254,-3.686 -1.44,-7.761c-0.201,-4.408 -0.243,-5.73 -0.243,-16.891c0,-11.162 0.042,-12.484 0.243,-16.891c0.186,-4.076 0.867,-6.289 1.44,-7.762c0.758,-1.951 1.664,-3.344 3.126,-4.807c1.463,-1.462 2.856,-2.368 4.807,-3.126c1.473,-0.573 3.686,-1.254 7.762,-1.44c4.407,-0.201 5.729,-0.243 16.891,-0.243Z" style="fill:#030404;fill-rule:nonzero;"/><path d="M75.419,89.327c-7.696,0 -13.934,-6.238 -13.934,-13.933c0,-7.696 6.238,-13.934 13.934,-13.934c7.695,0 13.933,6.238 13.933,13.934c0,7.695 -6.238,13.933 -13.933,13.933Zm0,-35.399c-11.855,0 -21.465,9.611 -21.465,21.466c0,11.855 9.61,21.465 21.465,21.465c11.855,0 21.465,-9.61 21.465,-21.465c0,-11.855 -9.61,-21.466 -21.465,-21.466Z" style="fill:#030404;fill-rule:nonzero;"/><path d="M102.748,53.08c0,2.771 -2.246,5.016 -5.016,5.016c-2.77,0 -5.016,-2.245 -5.016,-5.016c0,-2.77 2.246,-5.016 5.016,-5.016c2.77,0 5.016,2.246 5.016,5.016Z" style="fill:#030404;fill-rule:nonzero;"/></g></svg>