<?xml version="1.0" encoding="UTF-8" standalone="no"?><!DOCTYPE svg PUBLIC "-//W3C//DTD SVG 1.1//EN" "http://www.w3.org/Graphics/SVG/1.1/DTD/svg11.dtd"><svg width="100%" height="100%" viewBox="0 0 151 151" version="1.1" xmlns="http://www.w3.org/2000/svg" xmlns:xlink="http://www.w3.org/1999/xlink" xml:space="preserve" xmlns:serif="http://www.serif.com/" style="fill-rule:evenodd;clip-rule:evenodd;stroke-linejoin:round;stroke-miterlimit:1.41421;"><rect id="instagram_icon_c_w" x="0.419" y="0.788" width="150" height="150" style="fill:none;"/><circle cx="75.419" cy="75.788" r="75"/><g><path d="M74.989,37.718c-10.339,0 -11.636,0.044 -15.696,0.229c-4.052,0.185 -6.82,0.829 -9.241,1.77c-2.504,0.973 -4.627,2.274 -6.743,4.391c-2.117,2.116 -3.419,4.239 -4.391,6.743c-0.942,2.421 -1.585,5.189 -1.77,9.241c-0.185,4.06 -0.229,5.357 -0.229,15.696c0,10.339 0.044,11.636 0.229,15.696c0.185,4.052 0.828,6.82 1.77,9.241c0.972,2.504 2.274,4.627 4.391,6.743c2.116,2.117 4.239,3.418 6.743,4.391c2.421,0.941 5.189,1.585 9.241,1.77c4.06,0.185 5.357,0.229 15.696,0.229c10.339,0 11.635,-0.044 15.696,-0.229c4.052,-0.185 6.82,-0.829 9.241,-1.77c2.504,-0.973 4.627,-2.274 6.743,-4.391c2.117,-2.116 3.418,-4.239 4.391,-6.743c0.941,-2.421 1.585,-5.189 1.77,-9.241c0.185,-4.06 0.229,-5.357 0.229,-15.696c0,-10.339 -0.044,-11.636 -0.229,-15.696c-0.185,-4.052 -0.829,-6.82 -1.77,-9.241c-0.973,-2.504 -2.274,-4.627 -4.391,-6.743c-2.116,-2.117 -4.239,-3.418 -6.743,-4.391c-2.421,-0.941 -5.189,-1.585 -9.241,-1.77c-4.061,-0.185 -5.357,-0.229 -15.696,-0.229Zm0,6.86c10.165,0 11.369,0.038 15.383,0.222c3.712,0.169 5.728,0.789 7.069,1.31c1.777,0.691 3.046,1.516 4.378,2.848c1.332,1.332 2.157,2.601 2.848,4.377c0.521,1.342 1.141,3.358 1.31,7.07c0.183,4.014 0.222,5.218 0.222,15.383c0,10.165 -0.039,11.369 -0.222,15.384c-0.169,3.711 -0.789,5.727 -1.31,7.069c-0.691,1.777 -1.516,3.045 -2.848,4.377c-1.332,1.332 -2.601,2.157 -4.378,2.848c-1.341,0.521 -3.357,1.141 -7.069,1.31c-4.013,0.184 -5.217,0.222 -15.383,0.222c-10.166,0 -11.37,-0.038 -15.384,-0.222c-3.711,-0.169 -5.727,-0.789 -7.069,-1.31c-1.777,-0.691 -3.045,-1.516 -4.377,-2.848c-1.332,-1.332 -2.157,-2.6 -2.848,-4.377c-0.521,-1.342 -1.141,-3.358 -1.311,-7.069c-0.183,-4.015 -0.222,-5.219 -0.222,-15.384c0,-10.165 0.039,-11.369 0.222,-15.383c0.17,-3.712 0.79,-5.728 1.311,-7.07c0.691,-1.776 1.516,-3.045 2.848,-4.377c1.332,-1.332 2.6,-2.157 4.377,-2.848c1.342,-0.521 3.358,-1.141 7.069,-1.31c4.015,-0.184 5.219,-0.222 15.384,-0.222Z" style="fill:#fff;fill-rule:nonzero;"/><path d="M74.989,88.478c-7.009,0 -12.69,-5.681 -12.69,-12.69c0,-7.008 5.681,-12.69 12.69,-12.69c7.008,0 12.69,5.682 12.69,12.69c0,7.009 -5.682,12.69 -12.69,12.69Zm0,-32.239c-10.797,0 -19.549,8.752 -19.549,19.549c0,10.797 8.752,19.549 19.549,19.549c10.797,0 19.549,-8.752 19.549,-19.549c0,-10.797 -8.752,-19.549 -19.549,-19.549Z" style="fill:#fff;fill-rule:nonzero;"/><path d="M99.879,55.466c0,2.523 -2.045,4.569 -4.568,4.569c-2.523,0 -4.569,-2.046 -4.569,-4.569c0,-2.523 2.046,-4.568 4.569,-4.568c2.523,0 4.568,2.045 4.568,4.568Z" style="fill:#fff;fill-rule:nonzero;"/></g></svg>