<?xml version="1.0" encoding="UTF-8" standalone="no"?><!DOCTYPE svg PUBLIC "-//W3C//DTD SVG 1.1//EN" "http://www.w3.org/Graphics/SVG/1.1/DTD/svg11.dtd"><svg width="100%" height="100%" viewBox="0 0 151 151" version="1.1" xmlns="http://www.w3.org/2000/svg" xmlns:xlink="http://www.w3.org/1999/xlink" xml:space="preserve" xmlns:serif="http://www.serif.com/" style="fill-rule:evenodd;clip-rule:evenodd;stroke-linejoin:round;stroke-miterlimit:1.41421;"><rect id="itunes_icon_b" x="0.219" y="0.394" width="150" height="150" style="fill:none;"/><path d="M61.189,42.669l35.612,-7.123c1.97,-0.356 4.62,-1.188 4.62,3.76c0,0 0.001,53.081 0,53.101c-0.086,3.153 0.24,14.644 -13.639,13.671c-8.182,-0.574 -10.816,-10.27 -6.753,-14.468c3.326,-3.438 6.854,-3.815 12.549,-4.863c2.366,-0.436 3.332,-1.242 3.37,-4.385l0,-25.094c-0.009,-1.882 -0.28,-3.196 -3.468,-2.561l-28.467,5.699c-2.04,0.428 -3.212,1.039 -3.212,3.504l0,36.533c-0.1,4.609 -0.957,15.028 -15.241,13.453c-6.996,-0.771 -9.191,-9.4 -6.136,-13.977c2.763,-4.138 10.403,-4.698 12.97,-5.157c3.263,-0.584 3.883,-1.889 3.938,-3.841l0,-43.659c0.118,-2.906 1.262,-3.944 3.857,-4.593Z"/></svg>