<?xml version="1.0" encoding="UTF-8" standalone="no"?><!DOCTYPE svg PUBLIC "-//W3C//DTD SVG 1.1//EN" "http://www.w3.org/Graphics/SVG/1.1/DTD/svg11.dtd"><svg width="100%" height="100%" viewBox="0 0 151 151" version="1.1" xmlns="http://www.w3.org/2000/svg" xmlns:xlink="http://www.w3.org/1999/xlink" xml:space="preserve" xmlns:serif="http://www.serif.com/" style="fill-rule:evenodd;clip-rule:evenodd;stroke-linejoin:round;stroke-miterlimit:1.41421;"><rect id="itunes_icon_c" x="0.219" y="0.624" width="150" height="150" style="fill:none;"/><circle cx="75.219" cy="75.624" r="75"/><path d="M61.189,42.899l35.612,-7.122c1.97,-0.356 4.62,-1.188 4.62,3.76c0,0 0.001,53.08 0,53.101c-0.086,3.153 0.24,14.644 -13.639,13.671c-8.182,-0.574 -10.816,-10.27 -6.753,-14.468c3.326,-3.438 6.854,-3.815 12.549,-4.863c2.366,-0.436 3.332,-1.243 3.37,-4.386l0,-25.093c-0.009,-1.883 -0.28,-3.197 -3.468,-2.561l-28.467,5.699c-2.04,0.428 -3.212,1.039 -3.212,3.503l0,36.534c-0.1,4.609 -0.957,15.028 -15.241,13.453c-6.996,-0.771 -9.191,-9.401 -6.136,-13.978c2.763,-4.138 10.403,-4.697 12.97,-5.156c3.263,-0.584 3.883,-1.889 3.938,-3.841l0,-43.659c0.118,-2.906 1.262,-3.945 3.857,-4.594Z" style="fill:url(#_Linear1);"/><defs><linearGradient id="_Linear1" x1="0" y1="0" x2="1" y2="0" gradientUnits="userSpaceOnUse" gradientTransform="matrix(-34.809,-52.8513,52.8513,-34.809,95.2112,99.1569)"><stop offset="0" style="stop-color:#60a6f2;stop-opacity:1"/><stop offset="0.5" style="stop-color:#915df6;stop-opacity:1"/><stop offset="1" style="stop-color:#ed676a;stop-opacity:1"/></linearGradient></defs></svg>