<?xml version="1.0" encoding="UTF-8" standalone="no"?><!DOCTYPE svg PUBLIC "-//W3C//DTD SVG 1.1//EN" "http://www.w3.org/Graphics/SVG/1.1/DTD/svg11.dtd"><svg width="100%" height="100%" viewBox="0 0 151 151" version="1.1" xmlns="http://www.w3.org/2000/svg" xmlns:xlink="http://www.w3.org/1999/xlink" xml:space="preserve" xmlns:serif="http://www.serif.com/" style="fill-rule:evenodd;clip-rule:evenodd;stroke-linejoin:round;stroke-miterlimit:1.41421;"><rect id="linkedin_icon_b" x="0.895" y="0.394" width="150" height="150" style="fill:none;"/><path d="M111.287,103.99l0,-25.889c0,-12.707 -2.743,-22.483 -17.598,-22.483c-7.136,0 -11.921,3.911 -13.88,7.622l-0.196,0l0,-6.449l-14.07,0l0,47.199l14.657,0l0,-23.348c0,-6.156 1.172,-12.119 8.804,-12.119c7.522,0 7.623,7.041 7.623,12.514l0,22.953l14.66,0Zm-54.946,0l0,-47.199l-14.67,0l0,47.199l14.67,0Zm-7.334,-70.661c4.693,0 8.504,3.811 8.504,8.505c0,4.693 -3.811,8.504 -8.504,8.504c-4.694,0 -8.505,-3.811 -8.505,-8.504c0,-4.694 3.811,-8.505 8.505,-8.505Z"/></svg>