<?xml version="1.0" encoding="UTF-8" standalone="no"?><!DOCTYPE svg PUBLIC "-//W3C//DTD SVG 1.1//EN" "http://www.w3.org/Graphics/SVG/1.1/DTD/svg11.dtd"><svg width="100%" height="100%" viewBox="0 0 151 151" version="1.1" xmlns="http://www.w3.org/2000/svg" xmlns:xlink="http://www.w3.org/1999/xlink" xml:space="preserve" xmlns:serif="http://www.serif.com/" style="fill-rule:evenodd;clip-rule:evenodd;stroke-linejoin:round;stroke-miterlimit:1.41421;"><rect id="pinterest_icon_c_w" x="0.676" y="0.788" width="150" height="150" style="fill:none;"/><circle cx="75.676" cy="75.788" r="75"/><path d="M69.378,93.48c-2.391,12.532 -5.31,24.548 -13.958,30.823c-2.67,-18.941 3.92,-33.167 6.979,-48.27c-5.217,-8.782 0.628,-26.456 11.632,-22.099c13.539,5.356 -11.725,32.648 5.235,36.057c17.708,3.559 24.937,-30.725 13.957,-41.873c-15.866,-16.098 -46.184,-0.367 -42.456,22.681c0.908,5.635 6.729,7.345 2.327,15.121c-10.155,-2.252 -13.185,-10.259 -12.795,-20.936c0.628,-17.477 15.702,-29.713 30.823,-31.405c19.123,-2.141 37.07,7.019 39.548,25.007c2.791,20.303 -8.631,42.291 -29.078,40.71c-5.543,-0.43 -7.869,-3.176 -12.214,-5.816Z" style="fill:#fff;fill-rule:nonzero;"/></svg>