<?xml version="1.0" encoding="UTF-8" standalone="no"?><!DOCTYPE svg PUBLIC "-//W3C//DTD SVG 1.1//EN" "http://www.w3.org/Graphics/SVG/1.1/DTD/svg11.dtd"><svg width="100%" height="100%" viewBox="0 0 151 151" version="1.1" xmlns="http://www.w3.org/2000/svg" xmlns:xlink="http://www.w3.org/1999/xlink" xml:space="preserve" xmlns:serif="http://www.serif.com/" style="fill-rule:evenodd;clip-rule:evenodd;stroke-linejoin:round;stroke-miterlimit:1.41421;"><rect id="pinterest_icon_c" x="0.676" y="0.624" width="150" height="150" style="fill:none;"/><circle cx="75.676" cy="75.624" r="75"/><path d="M69.378,93.317c-2.391,12.532 -5.31,24.547 -13.958,30.823c-2.67,-18.942 3.92,-33.168 6.979,-48.271c-5.217,-8.781 0.628,-26.455 11.632,-22.099c13.539,5.356 -11.725,32.649 5.235,36.057c17.708,3.559 24.937,-30.724 13.957,-41.872c-15.866,-16.099 -46.184,-0.367 -42.456,22.681c0.908,5.635 6.729,7.344 2.327,15.12c-10.155,-2.251 -13.185,-10.259 -12.795,-20.936c0.628,-17.477 15.702,-29.712 30.823,-31.405c19.123,-2.141 37.07,7.019 39.548,25.008c2.791,20.302 -8.631,42.291 -29.078,40.709c-5.543,-0.43 -7.869,-3.176 -12.214,-5.815Z" style="fill:#bf202c;fill-rule:nonzero;"/></svg>