<?xml version="1.0" encoding="UTF-8" standalone="no"?><!DOCTYPE svg PUBLIC "-//W3C//DTD SVG 1.1//EN" "http://www.w3.org/Graphics/SVG/1.1/DTD/svg11.dtd"><svg width="100%" height="100%" viewBox="0 0 151 151" version="1.1" xmlns="http://www.w3.org/2000/svg" xmlns:xlink="http://www.w3.org/1999/xlink" xml:space="preserve" xmlns:serif="http://www.serif.com/" style="fill-rule:evenodd;clip-rule:evenodd;stroke-linejoin:round;stroke-miterlimit:1.41421;"><rect id="redbubble_icon_b" x="0.758" y="0.394" width="150" height="150" style="fill:none;"/><path d="M101.208,98.055l-17.399,0c-0.966,0 -1.749,-0.785 -1.749,-1.743l0,-43.458c0,-0.957 0.783,-1.739 1.749,-1.739l16.132,0c12.094,0 14.65,7.107 14.65,13.05c0,3.443 -0.93,6.165 -2.757,8.165c4.444,1.825 6.842,5.946 6.842,11.889c0,8.672 -6.544,13.836 -17.468,13.836Zm-25.265,0l-36.153,0c-0.965,0 -1.73,-0.785 -1.73,-1.743l0,-43.458c0,-0.957 0.765,-1.739 1.73,-1.739l16.88,0c10.564,0 16.836,5.664 16.836,15.114c0,6.304 -3.177,11.247 -8.307,13.251l12.033,15.689c0.984,1.122 0.197,2.865 -1.289,2.886Z" style="fill-rule:nonzero;"/></svg>