<?xml version="1.0" encoding="UTF-8" standalone="no"?><!DOCTYPE svg PUBLIC "-//W3C//DTD SVG 1.1//EN" "http://www.w3.org/Graphics/SVG/1.1/DTD/svg11.dtd"><svg width="100%" height="100%" viewBox="0 0 151 151" version="1.1" xmlns="http://www.w3.org/2000/svg" xmlns:xlink="http://www.w3.org/1999/xlink" xml:space="preserve" xmlns:serif="http://www.serif.com/" style="fill-rule:evenodd;clip-rule:evenodd;stroke-linejoin:round;stroke-miterlimit:1.41421;"><rect id="twitter_icon_b" x="0.393" y="0.394" width="150" height="150" style="fill:none;"/><path d="M114.733,50.259c-2.894,1.283 -6.006,2.151 -9.271,2.541c3.332,-1.998 5.892,-5.161 7.098,-8.931c-3.12,1.851 -6.574,3.194 -10.251,3.918c-2.944,-3.137 -7.14,-5.098 -11.782,-5.098c-8.915,0 -16.143,7.228 -16.143,16.142c0,1.265 0.143,2.497 0.418,3.679c-13.415,-0.674 -25.31,-7.1 -33.271,-16.866c-1.39,2.384 -2.185,5.157 -2.185,8.115c0,5.6 2.849,10.541 7.181,13.436c-2.646,-0.084 -5.136,-0.81 -7.312,-2.019c-0.001,0.068 -0.001,0.135 -0.001,0.203c0,7.821 5.564,14.345 12.948,15.828c-1.354,0.369 -2.78,0.566 -4.253,0.566c-1.04,0 -2.051,-0.101 -3.037,-0.289c2.055,6.412 8.016,11.079 15.08,11.209c-5.525,4.33 -12.485,6.911 -20.048,6.911c-1.303,0 -2.588,-0.077 -3.85,-0.226c7.143,4.58 15.628,7.253 24.744,7.253c29.691,0 45.928,-24.597 45.928,-45.928c0,-0.7 -0.017,-1.396 -0.048,-2.089c3.155,-2.275 5.891,-5.119 8.055,-8.355Z" style="fill-rule:nonzero;"/></svg>