<?xml version="1.0" encoding="UTF-8" standalone="no"?><!DOCTYPE svg PUBLIC "-//W3C//DTD SVG 1.1//EN" "http://www.w3.org/Graphics/SVG/1.1/DTD/svg11.dtd"><svg width="100%" height="100%" viewBox="0 0 16 16" version="1.1" xmlns="http://www.w3.org/2000/svg" xmlns:xlink="http://www.w3.org/1999/xlink" xml:space="preserve" xmlns:serif="http://www.serif.com/" style="fill-rule:evenodd;clip-rule:evenodd;stroke-linejoin:round;stroke-miterlimit:1.41421;"><path id="Layer-1" serif:id="Layer 1" d="M7.399,14.139c-1.027,0 -1.992,-0.281 -2.829,-0.752l4.886,-10.038l3.162,6.526l-5.11,0l-0.544,1.117l5.599,0c-0.975,1.914 -2.958,3.147 -5.164,3.147m8.051,-1.035l-5.994,-12.338l-5.813,11.962c-1.242,-1.063 -2.033,-2.64 -2.033,-4.4c0,-3.182 2.581,-5.771 5.759,-5.788l0.534,-1.098c-0.167,-0.012 -0.335,-0.019 -0.504,-0.019c-3.808,0 -6.906,3.097 -6.906,6.905c0,3.808 3.098,6.906 6.906,6.906c2.574,0 4.892,-1.42 6.081,-3.63l0.966,1.988c0.096,0.199 0.295,0.314 0.502,0.314c0.082,0 0.165,-0.018 0.244,-0.056c0.277,-0.135 0.393,-0.469 0.258,-0.746" style="fill-rule:nonzero;"/></svg>